# xmcd
#
# Track frame offsets:
#	150
#	31738
#	51030
#	75923
#	110140
#	138477
#	167671
#	206646
#	223970
#	262353
#	289295
#
# Disc length: 4777 seconds
#
# Revision: 1
# Processed by: cddbd v1.5.2PL0 Copyright (c) Steve Scherf et al.
# Submitted via: audiograbber 1.83.01
#
DISCID=aa12a70b
DTITLE=Joe Bonamassa - British Blues Explosion Live
DYEAR=2018
DGENRE=Blues
TTITLE0=Maineline Florida
TTITLE1=Boogie With Stu
TTITLE2=Let Me Love You Baby
TTITLE3=Double Crossing Time
TTITLE4=Motherless Children
TTITLE5=SWLABR
TTITLE6=Tea for One_I Can't Quit You Baby
TTITLE7=Little Girl
TTITLE8=Pretending
TTITLE9=Black Winter_Django
TTITLE10=How Many More Times
EXTD=
EXTT0=
EXTT1=
EXTT2=
EXTT3=
EXTT4=
EXTT5=
EXTT6=
EXTT7=
EXTT8=
EXTT9=
EXTT10=
PLAYORDER=
